<mxfile host="app.diagrams.net" modified="2024-07-09T10:58:46.944Z" agent="Mozilla/5.0 (Windows NT 10.0; Win64; x64) AppleWebKit/537.36 (KHTML, like Gecko) Chrome/125.0.0.0 Safari/537.36 Edg/125.0.0.0" etag="rNV2U5zr_325NBiMethn" version="24.6.4" type="github">
  <diagram name="Page-1" id="jhjfG0CmGIY8jheJav3H">
    <mxGraphModel dx="832" dy="491" grid="1" gridSize="10" guides="1" tooltips="1" connect="1" arrows="1" fold="1" page="1" pageScale="1" pageWidth="1169" pageHeight="826" background="#000033" math="0" shadow="0">
      <root>
        <mxCell id="0" />
        <mxCell id="1" parent="0" />
        <mxCell id="4Vo13kZeTU1XFkpvCee_-1" value="karyawan" style="swimlane;whiteSpace=wrap;html=1;strokeColor=#FFFFFF;strokeWidth=2;" vertex="1" parent="1">
          <mxGeometry x="170" y="60" width="200" height="660" as="geometry" />
        </mxCell>
        <mxCell id="4Vo13kZeTU1XFkpvCee_-3" value="&lt;font color=&quot;#ffffff&quot;&gt;menghubungi admin dan meminta formulir cuti&lt;/font&gt;" style="html=1;whiteSpace=wrap;fillColor=none;strokeColor=#FFFFFF;strokeWidth=2;rounded=1;" vertex="1" parent="4Vo13kZeTU1XFkpvCee_-1">
          <mxGeometry x="45" y="100" width="110" height="50" as="geometry" />
        </mxCell>
        <mxCell id="4Vo13kZeTU1XFkpvCee_-6" value="&lt;font color=&quot;#ffffff&quot;&gt;mengisi data&amp;nbsp;&lt;/font&gt;" style="html=1;whiteSpace=wrap;fillColor=none;strokeColor=#FFFFFF;strokeWidth=2;rounded=1;" vertex="1" parent="4Vo13kZeTU1XFkpvCee_-1">
          <mxGeometry x="45" y="210" width="110" height="50" as="geometry" />
        </mxCell>
        <mxCell id="4Vo13kZeTU1XFkpvCee_-35" style="edgeStyle=orthogonalEdgeStyle;rounded=0;orthogonalLoop=1;jettySize=auto;html=1;exitX=0.5;exitY=1;exitDx=0;exitDy=0;entryX=0.5;entryY=0;entryDx=0;entryDy=0;strokeColor=#FFFFFF;strokeWidth=2;" edge="1" parent="4Vo13kZeTU1XFkpvCee_-1" source="4Vo13kZeTU1XFkpvCee_-10" target="4Vo13kZeTU1XFkpvCee_-13">
          <mxGeometry relative="1" as="geometry" />
        </mxCell>
        <mxCell id="4Vo13kZeTU1XFkpvCee_-10" value="&lt;font color=&quot;#ffffff&quot;&gt;konfirmasi potong cuti bulan selanjutnya jika cuti tidak cukup&lt;/font&gt;" style="html=1;whiteSpace=wrap;fillColor=none;strokeColor=#FFFFFF;strokeWidth=2;rounded=1;" vertex="1" parent="4Vo13kZeTU1XFkpvCee_-1">
          <mxGeometry x="25" y="450" width="150" height="50" as="geometry" />
        </mxCell>
        <mxCell id="4Vo13kZeTU1XFkpvCee_-26" style="edgeStyle=orthogonalEdgeStyle;rounded=0;orthogonalLoop=1;jettySize=auto;html=1;exitX=0.5;exitY=1;exitDx=0;exitDy=0;entryX=0.5;entryY=0;entryDx=0;entryDy=0;strokeColor=#FFFFFF;strokeWidth=2;" edge="1" parent="4Vo13kZeTU1XFkpvCee_-1" source="4Vo13kZeTU1XFkpvCee_-14" target="4Vo13kZeTU1XFkpvCee_-3">
          <mxGeometry relative="1" as="geometry" />
        </mxCell>
        <mxCell id="4Vo13kZeTU1XFkpvCee_-14" value="" style="ellipse;html=1;shape=startState;fillColor=#FFFFFF;strokeColor=#FFFFFF;" vertex="1" parent="4Vo13kZeTU1XFkpvCee_-1">
          <mxGeometry x="85" y="44" width="30" height="30" as="geometry" />
        </mxCell>
        <mxCell id="4Vo13kZeTU1XFkpvCee_-13" value="" style="rhombus;whiteSpace=wrap;html=1;strokeColor=#FFFFFF;fillColor=#FF6666;" vertex="1" parent="4Vo13kZeTU1XFkpvCee_-1">
          <mxGeometry x="75" y="530" width="50" height="50" as="geometry" />
        </mxCell>
        <mxCell id="4Vo13kZeTU1XFkpvCee_-17" value="&lt;font color=&quot;#ffffff&quot;&gt;mulai&lt;/font&gt;" style="text;align=center;fontStyle=1;verticalAlign=middle;spacingLeft=3;spacingRight=3;strokeColor=none;rotatable=0;points=[[0,0.5],[1,0.5]];portConstraint=eastwest;html=1;" vertex="1" parent="4Vo13kZeTU1XFkpvCee_-1">
          <mxGeometry x="60" y="24" width="80" height="26" as="geometry" />
        </mxCell>
        <mxCell id="4Vo13kZeTU1XFkpvCee_-19" value="&lt;font color=&quot;#ffffff&quot;&gt;tidak&lt;/font&gt;" style="text;align=center;fontStyle=1;verticalAlign=middle;spacingLeft=3;spacingRight=3;strokeColor=none;rotatable=0;points=[[0,0.5],[1,0.5]];portConstraint=eastwest;html=1;" vertex="1" parent="4Vo13kZeTU1XFkpvCee_-1">
          <mxGeometry x="35" y="580" width="80" height="26" as="geometry" />
        </mxCell>
        <mxCell id="4Vo13kZeTU1XFkpvCee_-20" value="&lt;font color=&quot;#ffffff&quot;&gt;ya&lt;/font&gt;" style="text;align=center;fontStyle=1;verticalAlign=middle;spacingLeft=3;spacingRight=3;strokeColor=none;rotatable=0;points=[[0,0.5],[1,0.5]];portConstraint=eastwest;html=1;" vertex="1" parent="4Vo13kZeTU1XFkpvCee_-1">
          <mxGeometry x="95" y="530" width="80" height="26" as="geometry" />
        </mxCell>
        <mxCell id="4Vo13kZeTU1XFkpvCee_-2" value="admin" style="swimlane;whiteSpace=wrap;html=1;strokeColor=#FFFFFF;strokeWidth=2;" vertex="1" parent="1">
          <mxGeometry x="370" y="60" width="200" height="660" as="geometry" />
        </mxCell>
        <mxCell id="4Vo13kZeTU1XFkpvCee_-28" style="edgeStyle=orthogonalEdgeStyle;rounded=0;orthogonalLoop=1;jettySize=auto;html=1;exitX=0.5;exitY=1;exitDx=0;exitDy=0;entryX=0.5;entryY=0;entryDx=0;entryDy=0;strokeWidth=2;strokeColor=#FFFFFF;" edge="1" parent="4Vo13kZeTU1XFkpvCee_-2" source="4Vo13kZeTU1XFkpvCee_-5" target="4Vo13kZeTU1XFkpvCee_-7">
          <mxGeometry relative="1" as="geometry" />
        </mxCell>
        <mxCell id="4Vo13kZeTU1XFkpvCee_-5" value="&lt;font color=&quot;#ffffff&quot;&gt;memberikan formulir cuti&lt;/font&gt;&lt;span style=&quot;color: rgba(0, 0, 0, 0); font-family: monospace; font-size: 0px; text-align: start; text-wrap: nowrap;&quot;&gt;%3CmxGraphModel%3E%3Croot%3E%3CmxCell%20id%3D%220%22%2F%3E%3CmxCell%20id%3D%221%22%20parent%3D%220%22%2F%3E%3CmxCell%20id%3D%222%22%20value%3D%22%26lt%3Bfont%20color%3D%26quot%3B%23ffffff%26quot%3B%26gt%3BObject%26lt%3B%2Ffont%26gt%3B%22%20style%3D%22html%3D1%3BwhiteSpace%3Dwrap%3BfillColor%3Dnone%3BstrokeColor%3D%23FFFFFF%3BstrokeWidth%3D2%3Brounded%3D1%3B%22%20vertex%3D%221%22%20parent%3D%221%22%3E%3CmxGeometry%20x%3D%22190%22%20y%3D%22160%22%20width%3D%22110%22%20height%3D%2250%22%20as%3D%22geometry%22%2F%3E%3C%2FmxCell%3E%3C%2Froot%3E%3C%2FmxGraphModel%3E&lt;/span&gt;" style="html=1;whiteSpace=wrap;fillColor=none;strokeColor=#FFFFFF;strokeWidth=2;rounded=1;" vertex="1" parent="4Vo13kZeTU1XFkpvCee_-2">
          <mxGeometry x="45" y="100" width="110" height="50" as="geometry" />
        </mxCell>
        <mxCell id="4Vo13kZeTU1XFkpvCee_-7" value="&lt;font color=&quot;#ffffff&quot;&gt;meninjau formulir cuti&lt;/font&gt;" style="html=1;whiteSpace=wrap;fillColor=none;strokeColor=#FFFFFF;strokeWidth=2;rounded=1;" vertex="1" parent="4Vo13kZeTU1XFkpvCee_-2">
          <mxGeometry x="45" y="210" width="110" height="50" as="geometry" />
        </mxCell>
        <mxCell id="4Vo13kZeTU1XFkpvCee_-32" style="edgeStyle=orthogonalEdgeStyle;rounded=0;orthogonalLoop=1;jettySize=auto;html=1;exitX=0.5;exitY=1;exitDx=0;exitDy=0;entryX=0.5;entryY=0;entryDx=0;entryDy=0;strokeColor=#FFFFFF;strokeWidth=2;" edge="1" parent="4Vo13kZeTU1XFkpvCee_-2" source="4Vo13kZeTU1XFkpvCee_-9" target="4Vo13kZeTU1XFkpvCee_-12">
          <mxGeometry relative="1" as="geometry" />
        </mxCell>
        <mxCell id="4Vo13kZeTU1XFkpvCee_-9" value="&lt;font color=&quot;#ffffff&quot;&gt;sisa cuti cukup&lt;/font&gt;" style="html=1;whiteSpace=wrap;fillColor=none;strokeColor=#FFFFFF;strokeWidth=2;rounded=1;" vertex="1" parent="4Vo13kZeTU1XFkpvCee_-2">
          <mxGeometry x="45" y="380" width="110" height="50" as="geometry" />
        </mxCell>
        <mxCell id="4Vo13kZeTU1XFkpvCee_-31" style="edgeStyle=orthogonalEdgeStyle;rounded=0;orthogonalLoop=1;jettySize=auto;html=1;exitX=0.5;exitY=1;exitDx=0;exitDy=0;entryX=0.5;entryY=0;entryDx=0;entryDy=0;strokeColor=#FFFFFF;strokeWidth=2;" edge="1" parent="4Vo13kZeTU1XFkpvCee_-2" source="4Vo13kZeTU1XFkpvCee_-8" target="4Vo13kZeTU1XFkpvCee_-9">
          <mxGeometry relative="1" as="geometry" />
        </mxCell>
        <mxCell id="4Vo13kZeTU1XFkpvCee_-8" value="&lt;font color=&quot;#ffffff&quot;&gt;memeriksa sisa cuti&lt;/font&gt;" style="html=1;whiteSpace=wrap;fillColor=none;strokeColor=#FFFFFF;strokeWidth=2;rounded=1;" vertex="1" parent="4Vo13kZeTU1XFkpvCee_-2">
          <mxGeometry x="45" y="300" width="110" height="50" as="geometry" />
        </mxCell>
        <mxCell id="4Vo13kZeTU1XFkpvCee_-37" style="edgeStyle=orthogonalEdgeStyle;rounded=0;orthogonalLoop=1;jettySize=auto;html=1;exitX=0.5;exitY=1;exitDx=0;exitDy=0;entryX=0.5;entryY=0;entryDx=0;entryDy=0;strokeColor=#FFFFFF;strokeWidth=2;" edge="1" parent="4Vo13kZeTU1XFkpvCee_-2" source="4Vo13kZeTU1XFkpvCee_-11" target="4Vo13kZeTU1XFkpvCee_-16">
          <mxGeometry relative="1" as="geometry" />
        </mxCell>
        <mxCell id="4Vo13kZeTU1XFkpvCee_-11" value="&lt;font color=&quot;#ffffff&quot;&gt;data di catat&lt;/font&gt;" style="html=1;whiteSpace=wrap;fillColor=none;strokeColor=#FFFFFF;strokeWidth=2;rounded=1;" vertex="1" parent="4Vo13kZeTU1XFkpvCee_-2">
          <mxGeometry x="45" y="530" width="110" height="50" as="geometry" />
        </mxCell>
        <mxCell id="4Vo13kZeTU1XFkpvCee_-16" value="" style="ellipse;html=1;shape=endState;fillColor=#FFFFFF;strokeColor=#FFFFFF;" vertex="1" parent="4Vo13kZeTU1XFkpvCee_-2">
          <mxGeometry x="85" y="600" width="30" height="30" as="geometry" />
        </mxCell>
        <mxCell id="4Vo13kZeTU1XFkpvCee_-34" style="edgeStyle=orthogonalEdgeStyle;rounded=0;orthogonalLoop=1;jettySize=auto;html=1;exitX=0.5;exitY=1;exitDx=0;exitDy=0;entryX=0.5;entryY=0;entryDx=0;entryDy=0;strokeColor=#FFFFFF;strokeWidth=2;" edge="1" parent="4Vo13kZeTU1XFkpvCee_-2" source="4Vo13kZeTU1XFkpvCee_-12" target="4Vo13kZeTU1XFkpvCee_-11">
          <mxGeometry relative="1" as="geometry" />
        </mxCell>
        <mxCell id="4Vo13kZeTU1XFkpvCee_-12" value="" style="rhombus;whiteSpace=wrap;html=1;strokeColor=#FFFFFF;fillColor=#FF6666;" vertex="1" parent="4Vo13kZeTU1XFkpvCee_-2">
          <mxGeometry x="75" y="450" width="50" height="50" as="geometry" />
        </mxCell>
        <mxCell id="4Vo13kZeTU1XFkpvCee_-18" value="&lt;font color=&quot;#ffffff&quot;&gt;selesai&lt;/font&gt;" style="text;align=center;fontStyle=1;verticalAlign=middle;spacingLeft=3;spacingRight=3;strokeColor=none;rotatable=0;points=[[0,0.5],[1,0.5]];portConstraint=eastwest;html=1;" vertex="1" parent="4Vo13kZeTU1XFkpvCee_-2">
          <mxGeometry x="60" y="630" width="80" height="26" as="geometry" />
        </mxCell>
        <mxCell id="4Vo13kZeTU1XFkpvCee_-25" value="&lt;font color=&quot;#ffffff&quot;&gt;ya&lt;/font&gt;" style="text;align=center;fontStyle=1;verticalAlign=middle;spacingLeft=3;spacingRight=3;strokeColor=none;rotatable=0;points=[[0,0.5],[1,0.5]];portConstraint=eastwest;html=1;" vertex="1" parent="4Vo13kZeTU1XFkpvCee_-2">
          <mxGeometry x="75" y="490" width="80" height="26" as="geometry" />
        </mxCell>
        <mxCell id="4Vo13kZeTU1XFkpvCee_-23" value="&lt;font color=&quot;#ffffff&quot;&gt;tidak&lt;/font&gt;" style="text;align=center;fontStyle=1;verticalAlign=middle;spacingLeft=3;spacingRight=3;strokeColor=none;rotatable=0;points=[[0,0.5],[1,0.5]];portConstraint=eastwest;html=1;" vertex="1" parent="4Vo13kZeTU1XFkpvCee_-2">
          <mxGeometry x="20" y="450" width="80" height="26" as="geometry" />
        </mxCell>
        <mxCell id="4Vo13kZeTU1XFkpvCee_-27" style="edgeStyle=orthogonalEdgeStyle;rounded=0;orthogonalLoop=1;jettySize=auto;html=1;exitX=1;exitY=0.5;exitDx=0;exitDy=0;entryX=0;entryY=0.5;entryDx=0;entryDy=0;strokeWidth=2;strokeColor=#FFFFFF;" edge="1" parent="1" source="4Vo13kZeTU1XFkpvCee_-3" target="4Vo13kZeTU1XFkpvCee_-5">
          <mxGeometry relative="1" as="geometry" />
        </mxCell>
        <mxCell id="4Vo13kZeTU1XFkpvCee_-29" style="edgeStyle=orthogonalEdgeStyle;rounded=0;orthogonalLoop=1;jettySize=auto;html=1;exitX=0;exitY=0.5;exitDx=0;exitDy=0;entryX=1;entryY=0.5;entryDx=0;entryDy=0;strokeColor=#FFFFFF;strokeWidth=2;" edge="1" parent="1" source="4Vo13kZeTU1XFkpvCee_-7" target="4Vo13kZeTU1XFkpvCee_-6">
          <mxGeometry relative="1" as="geometry" />
        </mxCell>
        <mxCell id="4Vo13kZeTU1XFkpvCee_-30" style="edgeStyle=orthogonalEdgeStyle;rounded=0;orthogonalLoop=1;jettySize=auto;html=1;exitX=0.5;exitY=1;exitDx=0;exitDy=0;entryX=0;entryY=0.5;entryDx=0;entryDy=0;strokeColor=#FFFFFF;strokeWidth=2;" edge="1" parent="1" source="4Vo13kZeTU1XFkpvCee_-6" target="4Vo13kZeTU1XFkpvCee_-8">
          <mxGeometry relative="1" as="geometry" />
        </mxCell>
        <mxCell id="4Vo13kZeTU1XFkpvCee_-33" style="edgeStyle=orthogonalEdgeStyle;rounded=0;orthogonalLoop=1;jettySize=auto;html=1;exitX=0;exitY=0.5;exitDx=0;exitDy=0;entryX=1;entryY=0.5;entryDx=0;entryDy=0;strokeColor=#FFFFFF;strokeWidth=2;" edge="1" parent="1" source="4Vo13kZeTU1XFkpvCee_-12" target="4Vo13kZeTU1XFkpvCee_-10">
          <mxGeometry relative="1" as="geometry" />
        </mxCell>
        <mxCell id="4Vo13kZeTU1XFkpvCee_-36" style="edgeStyle=orthogonalEdgeStyle;rounded=0;orthogonalLoop=1;jettySize=auto;html=1;exitX=1;exitY=0.5;exitDx=0;exitDy=0;entryX=0;entryY=0.5;entryDx=0;entryDy=0;strokeColor=#FFFFFF;strokeWidth=2;" edge="1" parent="1" source="4Vo13kZeTU1XFkpvCee_-13" target="4Vo13kZeTU1XFkpvCee_-11">
          <mxGeometry relative="1" as="geometry" />
        </mxCell>
        <mxCell id="4Vo13kZeTU1XFkpvCee_-38" style="edgeStyle=orthogonalEdgeStyle;rounded=0;orthogonalLoop=1;jettySize=auto;html=1;exitX=0.5;exitY=1;exitDx=0;exitDy=0;entryX=0;entryY=0.5;entryDx=0;entryDy=0;strokeColor=#FFFFFF;strokeWidth=2;" edge="1" parent="1" source="4Vo13kZeTU1XFkpvCee_-13" target="4Vo13kZeTU1XFkpvCee_-16">
          <mxGeometry relative="1" as="geometry" />
        </mxCell>
      </root>
    </mxGraphModel>
  </diagram>
</mxfile>
